<svg xmlns="http://www.w3.org/2000/svg" viewBox="0 0 322 339" width="322px" height="339px">
<defs><style>.a{fill:#0d3387;}</style></defs>
<path class="a" d="M321.568,338.260 L271.488,338.260 L177.001,243.677 L161.654,258.728 C152.188,267.197 139.539,272.393 125.854,272.377 C96.130,272.366 72.065,248.299 72.049,218.586 C72.065,192.890 90.062,171.440 114.121,166.084 L114.121,204.484 C110.085,207.846 107.493,212.907 107.493,218.586 C107.497,228.722 115.710,236.923 125.854,236.938 C130.398,236.938 134.414,235.333 137.632,232.660 C138.968,231.745 164.788,206.361 164.788,206.361 L164.788,181.292 L177.069,193.574 L270.838,100.090 L321.026,100.090 L202.111,218.659 L321.568,338.260 ZM235.037,97.946 L229.160,101.660 C228.701,101.935 228.346,102.586 228.323,103.112 L228.039,110.056 C228.027,110.577 227.672,110.717 227.274,110.393 L221.934,105.949 C221.520,105.618 220.790,105.467 220.276,105.607 L213.582,107.489 C213.077,107.634 212.835,107.349 213.023,106.867 L215.601,100.403 C215.796,99.931 215.710,99.177 215.410,98.743 L211.558,92.977 C211.267,92.539 211.454,92.210 211.984,92.250 L218.921,92.698 C219.428,92.729 220.132,92.408 220.453,92.015 L224.756,86.561 C225.093,86.148 225.462,86.227 225.588,86.737 L227.304,93.455 C227.431,93.963 227.929,94.534 228.414,94.709 L234.962,97.111 C235.452,97.298 235.485,97.666 235.037,97.946 ZM208.290,91.606 C206.246,91.246 204.493,90.426 203.583,89.772 C202.902,89.281 202.755,88.328 203.231,87.641 C203.726,86.962 204.676,86.774 205.370,87.281 C206.378,88.018 207.686,88.462 208.787,88.602 C209.715,88.719 210.567,89.319 210.355,90.444 C210.194,91.304 209.361,91.793 208.290,91.606 ZM198.807,83.992 C198.619,84.307 198.606,84.827 198.755,85.171 L201.908,91.870 C202.057,92.186 201.893,92.480 201.536,92.480 L194.126,92.531 C193.757,92.535 193.287,92.772 193.067,93.067 L188.844,99.145 C188.652,99.446 188.328,99.442 188.132,99.123 L184.392,92.729 C184.197,92.404 183.763,92.126 183.388,92.109 L176.021,91.474 C175.656,91.450 175.500,91.161 175.693,90.841 L179.355,84.414 C179.533,84.086 179.559,83.557 179.385,83.231 L176.240,76.540 C176.097,76.206 176.267,75.947 176.624,75.933 L184.035,75.876 C184.392,75.876 184.866,75.628 185.079,75.334 L189.301,69.265 C189.518,68.960 189.825,68.979 190.017,69.277 L193.757,75.671 C193.952,75.990 194.386,76.268 194.753,76.306 L202.137,76.921 C202.496,76.954 202.651,77.249 202.466,77.554 L198.807,83.992 ZM182.557,72.624 C181.805,72.997 180.896,72.691 180.512,71.937 C171.438,53.891 150.390,43.937 150.227,43.828 C149.531,43.347 149.365,42.396 149.860,41.702 C150.338,40.998 151.293,40.830 151.979,41.324 C152.684,41.816 173.819,51.804 183.241,70.572 C183.616,71.315 183.316,72.235 182.557,72.624 ZM158.028,14.320 L151.255,18.016 C150.751,18.298 150.275,19.001 150.229,19.585 L149.450,27.265 C149.377,27.839 148.996,27.984 148.584,27.591 L142.943,22.299 C142.524,21.905 141.722,21.669 141.157,21.788 L133.605,23.418 C133.024,23.560 132.784,23.220 133.021,22.696 L136.324,15.707 C136.565,15.185 136.537,14.347 136.226,13.856 L132.351,7.159 C132.065,6.674 132.298,6.319 132.874,6.394 L140.530,7.387 C141.110,7.438 141.889,7.151 142.280,6.712 L147.426,0.963 C147.821,0.526 148.215,0.636 148.338,1.212 L149.768,8.801 C149.865,9.372 150.397,10.022 150.930,10.266 L157.994,13.376 C158.536,13.617 158.536,14.034 158.028,14.320 ZM135.609,34.374 L138.906,29.247 C139.163,28.867 139.480,28.894 139.635,29.335 L141.699,35.068 C141.864,35.502 142.344,35.947 142.782,36.062 L148.687,37.622 C149.122,37.736 149.187,38.060 148.830,38.345 L144.013,42.075 C143.649,42.354 143.371,42.947 143.390,43.408 L143.739,49.497 C143.768,49.955 143.469,50.120 143.105,49.857 L138.067,46.429 C137.687,46.171 137.034,46.101 136.592,46.261 L130.929,48.463 C130.486,48.633 130.250,48.411 130.384,47.974 L132.093,42.120 C132.203,41.685 132.084,41.031 131.783,40.677 L127.927,35.966 C127.638,35.600 127.777,35.286 128.230,35.283 L134.334,35.098 C134.785,35.077 135.364,34.752 135.609,34.374 ZM131.053,67.820 C130.290,67.464 129.964,66.557 130.300,65.794 C134.155,57.468 135.294,50.741 135.306,50.668 C135.440,49.843 136.229,49.281 137.064,49.402 C137.899,49.547 138.449,50.332 138.325,51.159 C138.280,51.456 137.116,58.351 133.083,67.070 C132.731,67.833 131.830,68.176 131.053,67.820 ZM157.173,203.443 L133.923,226.781 C132.345,228.342 129.618,230.216 125.680,230.216 C124.307,230.216 122.956,229.962 121.736,229.506 L121.736,100.090 L157.173,100.090 L157.173,203.443 ZM123.798,39.648 C115.667,38.973 103.507,40.552 98.186,41.854 C96.517,42.264 95.077,42.610 93.937,42.820 C89.170,43.653 80.625,43.473 80.257,43.458 C79.414,43.441 78.754,42.737 78.769,41.904 C78.792,41.056 79.479,40.383 80.322,40.406 C80.408,40.406 88.949,40.587 93.413,39.799 C94.457,39.622 95.844,39.280 97.452,38.885 C102.962,37.534 115.429,35.881 124.053,36.599 C124.897,36.669 125.529,37.402 125.447,38.244 C125.390,39.086 124.644,39.717 123.798,39.648 ZM71.915,44.613 C71.522,45.034 71.286,45.860 71.407,46.429 L73.034,54.015 C73.152,54.582 72.833,54.843 72.298,54.604 L65.277,51.278 C64.756,51.027 63.906,51.060 63.405,51.343 L56.689,55.246 C56.185,55.530 55.835,55.304 55.907,54.723 L56.902,47.034 C56.974,46.443 56.689,45.652 56.254,45.257 L50.476,40.075 C50.038,39.687 50.146,39.284 50.720,39.166 L58.356,37.755 C58.934,37.638 59.591,37.104 59.837,36.579 L62.987,29.480 C63.209,28.943 63.631,28.923 63.906,29.431 L67.625,36.250 C67.905,36.764 68.618,37.232 69.205,37.292 L76.926,38.089 C77.506,38.155 77.638,38.540 77.251,38.969 L71.915,44.613 ZM50.754,94.426 L53.944,88.962 C54.189,88.558 54.535,88.578 54.707,89.019 L57.095,94.871 C57.284,95.312 57.814,95.754 58.264,95.857 L64.461,97.180 C64.918,97.291 65.008,97.625 64.654,97.930 L59.828,102.024 C59.447,102.332 59.202,102.972 59.237,103.444 L59.885,109.732 C59.919,110.201 59.638,110.393 59.232,110.142 L53.855,106.815 C53.452,106.561 52.758,106.508 52.335,106.705 L46.536,109.260 C46.098,109.453 45.836,109.231 45.951,108.766 L47.449,102.621 C47.561,102.168 47.391,101.497 47.085,101.137 L42.863,96.417 C42.554,96.074 42.678,95.749 43.149,95.714 L49.449,95.229 C49.936,95.199 50.508,94.835 50.754,94.426 ZM47.539,44.088 C34.339,43.764 24.192,37.974 23.774,37.724 C23.036,37.308 22.791,36.373 23.217,35.639 C23.646,34.902 24.571,34.654 25.308,35.077 C25.400,35.137 35.222,40.729 47.604,41.031 C48.451,41.056 49.105,41.751 49.090,42.607 C49.085,43.435 48.386,44.105 47.539,44.088 ZM26.038,115.111 L35.549,116.411 C36.015,116.482 36.193,116.865 35.934,117.253 L30.761,125.356 C30.495,125.753 30.450,126.436 30.628,126.878 L34.246,135.774 C34.418,136.206 34.186,136.552 33.725,136.528 L24.116,136.091 C23.643,136.060 23.013,136.356 22.729,136.723 L16.838,144.318 C16.544,144.695 16.127,144.652 15.921,144.232 L11.487,135.713 C11.267,135.287 10.705,134.896 10.238,134.831 L0.726,133.514 C0.261,133.463 0.090,133.074 0.331,132.680 L5.512,124.583 C5.761,124.175 5.839,123.499 5.663,123.066 L2.024,114.176 C1.847,113.736 2.065,113.385 2.565,113.408 L12.153,113.847 C12.623,113.862 13.266,113.575 13.551,113.199 L19.434,105.607 C19.735,105.238 20.154,105.281 20.367,105.700 L24.781,114.231 C25.001,114.658 25.557,115.041 26.038,115.111 ZM12.485,150.042 C12.546,150.872 11.949,151.646 11.134,151.733 C10.310,151.834 9.561,151.300 9.455,150.472 C9.417,150.274 10.014,144.080 10.014,144.080 C10.114,143.251 10.879,142.646 11.706,142.731 C12.553,142.840 13.146,143.596 13.059,144.440 C12.790,146.798 12.480,149.761 12.491,150.186 L12.485,150.042 ZM1.149,162.473 L8.502,161.183 C9.057,161.078 9.695,160.588 9.929,160.075 L13.035,153.287 C13.273,152.779 13.671,152.756 13.943,153.263 L17.438,159.858 C17.696,160.355 18.370,160.808 18.919,160.875 L26.355,161.734 C26.912,161.783 27.031,162.173 26.641,162.569 L21.462,167.943 C21.077,168.343 20.850,169.127 20.953,169.683 L22.438,176.996 C22.544,177.551 22.215,177.790 21.724,177.551 L15.005,174.272 C14.509,174.026 13.708,174.044 13.206,174.325 L6.705,177.984 C6.208,178.270 5.884,178.022 5.955,177.488 L7.011,170.097 C7.079,169.540 6.799,168.767 6.391,168.398 L0.890,163.341 C0.473,162.953 0.595,162.569 1.149,162.473 ZM25.513,170.253 C25.656,170.253 31.423,170.183 36.397,171.026 C37.233,171.162 37.798,171.943 37.654,172.773 C37.520,173.622 36.726,174.170 35.900,174.037 C31.294,173.265 25.722,173.302 25.686,173.302 C24.852,173.352 24.113,172.714 24.082,171.876 C24.031,171.027 24.677,170.297 25.513,170.253 ZM30.179,112.344 C29.591,112.945 28.632,112.953 28.029,112.361 C27.407,111.769 27.416,110.802 28.013,110.197 C28.239,109.966 35.013,104.284 42.064,101.657 C42.863,101.374 43.738,101.769 44.031,102.552 C44.330,103.355 43.920,104.230 43.130,104.522 C36.729,106.904 30.238,112.302 30.179,112.344 ZM39.912,170.370 L46.163,169.460 C46.646,169.404 47.203,168.988 47.416,168.565 L50.208,162.896 C50.417,162.460 50.763,162.460 50.974,162.896 L53.766,168.565 C53.983,168.988 54.539,169.404 55.006,169.460 L61.271,170.370 C61.734,170.442 61.851,170.773 61.513,171.100 L56.978,175.516 C56.634,175.843 56.417,176.501 56.507,176.970 L57.571,183.215 C57.660,183.681 57.365,183.884 56.954,183.652 L51.352,180.708 C50.935,180.481 50.243,180.481 49.827,180.708 L44.229,183.652 C43.813,183.884 43.528,183.681 43.608,183.215 L44.688,176.970 C44.756,176.501 44.556,175.843 44.205,175.516 L39.678,171.100 C39.336,170.773 39.444,170.442 39.912,170.370 ZM57.380,88.121 C56.540,87.981 55.983,87.196 56.123,86.365 C56.672,83.013 62.390,56.792 62.569,55.892 C62.747,55.072 63.577,54.543 64.380,54.729 C65.212,54.894 65.731,55.714 65.558,56.540 C65.511,56.761 59.687,83.585 59.128,86.875 C59.002,87.695 58.199,88.267 57.380,88.121 ZM157.173,271.416 L157.173,338.260 L121.736,338.260 L121.736,279.841 C123.097,279.932 125.872,279.994 125.872,279.994 C136.980,279.994 147.768,276.990 157.173,271.416 Z"/>
</svg>